<?xml version="1.0" standalone="no"?>
<!DOCTYPE svg PUBLIC "-//W3C//DTD SVG 20010904//EN"
 "http://www.w3.org/TR/2001/REC-SVG-20010904/DTD/svg10.dtd">
<svg version="1.0" xmlns="http://www.w3.org/2000/svg"
 width="700.000000pt" height="700.000000pt" viewBox="0 0 700.000000 700.000000"
 preserveAspectRatio="xMidYMid meet">
<metadata>
Created by potrace 1.14, written by Peter Selinger 2001-2017
</metadata>
<g transform="translate(0.000000,700.000000) scale(0.100000,-0.100000)"
fill="#000000" stroke="none">
<path d="M3278 6995 c-1 -1 -42 -6 -89 -9 -47 -4 -94 -8 -105 -10 -10 -2 -46
-7 -79 -11 -32 -4 -68 -9 -80 -11 -73 -14 -133 -26 -155 -30 -162 -33 -388
-102 -575 -176 -110 -44 -352 -161 -430 -208 -27 -17 -58 -33 -67 -36 -10 -4
-18 -10 -18 -15 0 -5 -5 -9 -11 -9 -15 0 -206 -131 -323 -223 -346 -269 -664
-634 -885 -1017 -37 -66 -181 -354 -181 -365 0 -4 -7 -21 -15 -38 -78 -167
-192 -569 -219 -772 -3 -17 -7 -45 -11 -64 -20 -109 -29 -276 -29 -506 0 -194
6 -329 19 -406 2 -13 6 -46 9 -74 38 -329 167 -745 339 -1085 61 -122 169
-312 187 -330 3 -3 31 -43 62 -90 170 -255 431 -534 708 -755 92 -74 370 -265
386 -265 4 0 15 -6 23 -14 27 -23 262 -141 398 -199 151 -64 383 -144 473
-162 8 -2 53 -12 100 -24 109 -26 200 -43 299 -57 25 -3 57 -8 71 -10 163 -25
682 -25 841 1 13 2 47 7 74 10 74 11 87 13 120 19 17 4 46 9 65 12 51 8 213
48 300 74 253 74 522 187 734 309 49 28 91 51 93 51 10 0 268 180 353 247 152
119 324 280 450 422 36 41 70 79 76 85 65 68 263 353 352 508 47 80 182 351
182 364 0 3 8 24 19 47 53 118 147 417 177 562 17 81 54 301 59 350 4 33 9 71
11 85 9 48 11 526 3 612 -8 84 -17 171 -24 213 -1 11 -6 43 -10 70 -3 28 -8
58 -11 67 -5 18 -11 46 -20 93 -11 63 -64 266 -78 300 -8 19 -13 35 -11 35 2
0 -12 43 -31 97 -221 611 -573 1119 -1059 1529 -98 82 -294 226 -367 269 -9 5
-49 30 -89 54 -349 212 -822 384 -1229 446 -25 4 -54 9 -65 11 -11 2 -51 7
-88 10 -37 3 -78 8 -90 11 -24 5 -533 14 -539 8z"/>
</g>
</svg>
